HIERARCHY
ROOT mixamorig:Hips
{
	OFFSET 0.000000 201.639420 0.000000
	CHANNELS 6 Xposition Yposition Zposition Xrotation Yrotation Zrotation
	JOINT mixamorig:Spine
	{
		OFFSET 0.006200 19.524994 -2.481800
		CHANNELS 3 Xrotation Yrotation Zrotation
		JOINT mixamorig:Spine1
		{
			OFFSET -0.000900 22.835007 -2.825400
			CHANNELS 3 Xrotation Yrotation Zrotation
			JOINT mixamorig:Spine2
			{
				OFFSET -0.020600 26.552490 -3.193300
				CHANNELS 3 Xrotation Yrotation Zrotation
				JOINT mixamorig:Neck
				{
					OFFSET -0.060000 30.701813 1.352200
					CHANNELS 3 Xrotation Yrotation Zrotation
					JOINT mixamorig:Head
					{
						OFFSET -0.087200 22.547607 3.670900
						CHANNELS 3 Xrotation Yrotation Zrotation
						JOINT mixamorig:HeadTop_End
						{
							OFFSET -0.830600 40.355194 7.893500
							CHANNELS 3 Xrotation Yrotation Zrotation
							End Site
							{
								OFFSET 0.000000 30.592346 0.000000
							}
						}
						JOINT mixamorig:RightEye
						{
							OFFSET -6.302100 18.118591 16.197100
							CHANNELS 3 Xrotation Yrotation Zrotation
							End Site
							{
								OFFSET 0.000000 30.592346 0.000000
							}
						}
						JOINT mixamorig:LeftEye
						{
							OFFSET 6.741500 18.382690 16.401899
							CHANNELS 3 Xrotation Yrotation Zrotation
							End Site
							{
								OFFSET 0.000000 30.592346 0.000000
							}
						}
					}
				}
				JOINT mixamorig:LeftShoulder
				{
					OFFSET 11.924900 18.230499 1.425400
					CHANNELS 3 Xrotation Yrotation Zrotation
					JOINT mixamorig:LeftArm
					{
						OFFSET 25.435989 -0.697632 -5.229300
						CHANNELS 3 Xrotation Yrotation Zrotation
						JOINT mixamorig:LeftForeArm
						{
							OFFSET 54.684776 0.000000 0.000000
							CHANNELS 3 Xrotation Yrotation Zrotation
							JOINT mixamorig:LeftHand
							{
								OFFSET 55.098175 0.000000 0.000000
								CHANNELS 3 Xrotation Yrotation Zrotation
								JOINT mixamorig:LeftHandMiddle1
								{
									OFFSET 23.369751 0.000000 0.000000
									CHANNELS 3 Xrotation Yrotation Zrotation
									JOINT mixamorig:LeftHandMiddle2
									{
										OFFSET 6.378677 0.000000 0.000000
										CHANNELS 3 Xrotation Yrotation Zrotation
										JOINT mixamorig:LeftHandMiddle3
										{
											OFFSET 6.148331 0.000000 0.000000
											CHANNELS 3 Xrotation Yrotation Zrotation
											JOINT mixamorig:LeftHandMiddle4
											{
												OFFSET 6.582504 0.000000 0.000000
												CHANNELS 3 Xrotation Yrotation Zrotation
												End Site
												{
													OFFSET -1.168900 6.395691 1.028606
												}
											}
										}
									}
								}
								JOINT mixamorig:LeftHandThumb1
								{
									OFFSET 7.235672 -3.848206 5.434273
									CHANNELS 3 Xrotation Yrotation Zrotation
									JOINT mixamorig:LeftHandThumb2
									{
										OFFSET 6.568451 -3.792297 3.792300
										CHANNELS 3 Xrotation Yrotation Zrotation
										JOINT mixamorig:LeftHandThumb3
										{
											OFFSET 6.063080 -3.500519 3.500518
											CHANNELS 3 Xrotation Yrotation Zrotation
											JOINT mixamorig:LeftHandThumb4
											{
												OFFSET 4.793182 -2.767334 2.767349
												CHANNELS 3 Xrotation Yrotation Zrotation
												End Site
												{
													OFFSET 0.101639 6.054260 1.275483
												}
											}
										}
									}
								}
								JOINT mixamorig:LeftHandIndex1
								{
									OFFSET 23.101074 -0.309540 4.992809
									CHANNELS 3 Xrotation Yrotation Zrotation
									JOINT mixamorig:LeftHandIndex2
									{
										OFFSET 6.226883 0.000000 0.000000
										CHANNELS 3 Xrotation Yrotation Zrotation
										JOINT mixamorig:LeftHandIndex3
										{
											OFFSET 6.094330 0.000000 0.000000
											CHANNELS 3 Xrotation Yrotation Zrotation
											JOINT mixamorig:LeftHandIndex4
											{
												OFFSET 5.482605 0.000000 0.000000
												CHANNELS 3 Xrotation Yrotation Zrotation
												End Site
												{
													OFFSET -1.427902 5.233032 0.797164
												}
											}
										}
									}
								}
								JOINT mixamorig:LeftHandRing1
								{
									OFFSET 22.299240 0.021149 -3.964172
									CHANNELS 3 Xrotation Yrotation Zrotation
									JOINT mixamorig:LeftHandRing2
									{
										OFFSET 6.321869 0.000000 0.000000
										CHANNELS 3 Xrotation Yrotation Zrotation
										JOINT mixamorig:LeftHandRing3
										{
											OFFSET 5.899796 0.000000 0.000000
											CHANNELS 3 Xrotation Yrotation Zrotation
											JOINT mixamorig:LeftHandRing4
											{
												OFFSET 6.517899 0.000000 0.000000
												CHANNELS 3 Xrotation Yrotation Zrotation
												End Site
												{
													OFFSET -1.637299 6.232208 0.980890
												}
											}
										}
									}
								}
								JOINT mixamorig:LeftHandPinky1
								{
									OFFSET 20.463791 -0.302338 -8.562233
									CHANNELS 3 Xrotation Yrotation Zrotation
									JOINT mixamorig:LeftHandPinky2
									{
										OFFSET 6.908646 0.000000 0.000000
										CHANNELS 3 Xrotation Yrotation Zrotation
										JOINT mixamorig:LeftHandPinky3
										{
											OFFSET 4.622849 0.000000 0.000000
											CHANNELS 3 Xrotation Yrotation Zrotation
											JOINT mixamorig:LeftHandPinky4
											{
												OFFSET 5.216080 0.000000 0.000000
												CHANNELS 3 Xrotation Yrotation Zrotation
												End Site
												{
													OFFSET -0.606308 5.116241 0.814926
												}
											}
										}
									}
								}
							}
						}
					}
				}
				JOINT mixamorig:RightShoulder
				{
					OFFSET -12.001300 18.284088 1.348900
					CHANNELS 3 Xrotation Yrotation Zrotation
					JOINT mixamorig:RightArm
					{
						OFFSET -25.308500 -0.751312 -5.164599
						CHANNELS 3 Xrotation Yrotation Zrotation
						JOINT mixamorig:RightForeArm
						{
							OFFSET -54.684429 0.000000 0.000000
							CHANNELS 3 Xrotation Yrotation Zrotation
							JOINT mixamorig:RightHand
							{
								OFFSET -55.150291 0.000000 0.000000
								CHANNELS 3 Xrotation Yrotation Zrotation
								JOINT mixamorig:RightHandMiddle1
								{
									OFFSET -23.317566 0.000000 0.000000
									CHANNELS 3 Xrotation Yrotation Zrotation
									JOINT mixamorig:RightHandMiddle2
									{
										OFFSET -6.378403 0.000000 0.000000
										CHANNELS 3 Xrotation Yrotation Zrotation
										JOINT mixamorig:RightHandMiddle3
										{
											OFFSET -6.148193 0.000000 0.000000
											CHANNELS 3 Xrotation Yrotation Zrotation
											JOINT mixamorig:RightHandMiddle4
											{
												OFFSET -6.583389 0.000000 0.000000
												CHANNELS 3 Xrotation Yrotation Zrotation
												End Site
												{
													OFFSET 1.171692 6.395905 1.029786
												}
											}
										}
									}
								}
								JOINT mixamorig:RightHandThumb1
								{
									OFFSET -7.190521 -3.860474 5.435846
									CHANNELS 3 Xrotation Yrotation Zrotation
									JOINT mixamorig:RightHandThumb2
									{
										OFFSET -6.567429 -3.791718 3.791708
										CHANNELS 3 Xrotation Yrotation Zrotation
										JOINT mixamorig:RightHandThumb3
										{
											OFFSET -6.062469 -3.500153 3.500166
											CHANNELS 3 Xrotation Yrotation Zrotation
											JOINT mixamorig:RightHandThumb4
											{
												OFFSET -4.792618 -2.767029 2.767022
												CHANNELS 3 Xrotation Yrotation Zrotation
												End Site
												{
													OFFSET -0.100327 6.053253 1.276754
												}
											}
										}
									}
								}
								JOINT mixamorig:RightHandIndex1
								{
									OFFSET -23.048981 -0.310791 4.992554
									CHANNELS 3 Xrotation Yrotation Zrotation
									JOINT mixamorig:RightHandIndex2
									{
										OFFSET -6.227539 0.000000 0.000000
										CHANNELS 3 Xrotation Yrotation Zrotation
										JOINT mixamorig:RightHandIndex3
										{
											OFFSET -6.095047 0.000000 0.000000
											CHANNELS 3 Xrotation Yrotation Zrotation
											JOINT mixamorig:RightHandIndex4
											{
												OFFSET -5.484772 0.000000 0.000000
												CHANNELS 3 Xrotation Yrotation Zrotation
												End Site
												{
													OFFSET 1.420593 5.237305 0.797056
												}
											}
										}
									}
								}
								JOINT mixamorig:RightHandRing1
								{
									OFFSET -22.246323 0.020569 -3.963762
									CHANNELS 3 Xrotation Yrotation Zrotation
									JOINT mixamorig:RightHandRing2
									{
										OFFSET -6.322128 0.000000 0.000000
										CHANNELS 3 Xrotation Yrotation Zrotation
										JOINT mixamorig:RightHandRing3
										{
											OFFSET -5.900024 0.000000 0.000000
											CHANNELS 3 Xrotation Yrotation Zrotation
											JOINT mixamorig:RightHandRing4
											{
												OFFSET -6.518356 0.000000 0.000000
												CHANNELS 3 Xrotation Yrotation Zrotation
												End Site
												{
													OFFSET 1.636398 6.232697 0.982186
												}
											}
										}
									}
								}
								JOINT mixamorig:RightHandPinky1
								{
									OFFSET -20.411011 -0.303314 -8.561701
									CHANNELS 3 Xrotation Yrotation Zrotation
									JOINT mixamorig:RightHandPinky2
									{
										OFFSET -6.907349 0.000000 0.000000
										CHANNELS 3 Xrotation Yrotation Zrotation
										JOINT mixamorig:RightHandPinky3
										{
											OFFSET -4.623840 0.000000 0.000000
											CHANNELS 3 Xrotation Yrotation Zrotation
											JOINT mixamorig:RightHandPinky4
											{
												OFFSET -5.218353 0.000000 0.000000
												CHANNELS 3 Xrotation Yrotation Zrotation
												End Site
												{
													OFFSET 0.602097 5.118835 0.816273
												}
											}
										}
									}
								}
							}
						}
					}
				}
			}
		}
	}
	JOINT mixamorig:LeftUpLeg
	{
		OFFSET 18.168400 -13.561905 -0.039000
		CHANNELS 3 Xrotation Yrotation Zrotation
		JOINT mixamorig:LeftLeg
		{
			OFFSET 0.577358 -80.825211 -3.695000
			CHANNELS 3 Xrotation Yrotation Zrotation
			JOINT mixamorig:LeftFoot
			{
				OFFSET -0.577356 -83.370262 -6.520700
				CHANNELS 3 Xrotation Yrotation Zrotation
				JOINT mixamorig:LeftToeBase
				{
					OFFSET 0.750401 -20.798306 25.135401
					CHANNELS 3 Xrotation Yrotation Zrotation
					JOINT mixamorig:LeftToe_End
					{
						OFFSET -0.000500 0.001200 19.917799
						CHANNELS 3 Xrotation Yrotation Zrotation
						End Site
						{
							OFFSET 0.000000 19.917805 0.000000
						}
					}
				}
			}
		}
	}
	JOINT mixamorig:RightUpLeg
	{
		OFFSET -18.162500 -13.585098 -0.041000
		CHANNELS 3 Xrotation Yrotation Zrotation
		JOINT mixamorig:RightLeg
		{
			OFFSET -0.595024 -80.945297 -3.631900
			CHANNELS 3 Xrotation Yrotation Zrotation
			JOINT mixamorig:RightFoot
			{
				OFFSET 0.595024 -83.218193 -6.561200
				CHANNELS 3 Xrotation Yrotation Zrotation
				JOINT mixamorig:RightToeBase
				{
					OFFSET -0.753601 -20.807106 25.115000
					CHANNELS 3 Xrotation Yrotation Zrotation
					JOINT mixamorig:RightToe_End
					{
						OFFSET 0.000299 0.001700 19.918200
						CHANNELS 3 Xrotation Yrotation Zrotation
						End Site
						{
							OFFSET 0.000000 19.918203 0.000000
						}
					}
				}
			}
		}
	}
}
MOTION
Frames: 4
Frame Time: 0.033333
-4.582233 170.525742 3.285717 1.122604 -4.838027 -13.369596 2.800592 -0.608461 3.617135 5.593904 -0.573846 4.944785 5.593902 -0.573844 4.944791 -7.639742 3.321198 -0.683149 -17.866054 17.066355 -1.013600 -0.000000 0.000000 0.000000 -0.000000 0.000000 0.000000 -0.000000 0.000000 0.000000 0.435158 -8.306893 -13.276075 42.371522 2.769497 -51.130950 -0.090520 -71.438950 0.032829 11.887680 6.949042 15.447873 0.790692 4.662061 -12.658038 -1.831985 -3.210963 -52.396970 0.000004 0.000002 0.000003 -0.000000 -0.000000 -0.000005 1.316463 -6.828135 -31.640957 0.755139 3.619444 2.113946 0.000004 0.000010 0.000007 0.000002 -0.000001 -0.000000 5.707763 -2.766667 -0.644571 0.342860 1.135751 -45.007043 0.000003 -0.000002 -0.000003 -0.000000 0.000001 -0.000000 -17.940790 18.648747 -18.662532 -2.077415 -4.517241 -55.042312 -0.000002 -0.000007 -0.000003 0.000001 0.000000 -0.000002 0.827596 25.069653 -34.046164 -2.716572 -8.221482 -53.396332 -0.000002 -0.000006 -0.000008 -0.000001 0.000002 0.000005 0.874723 -1.713641 16.019490 2.374501 -2.029561 43.083901 -0.015563 67.405757 -0.058737 24.393472 -9.881029 3.608468 -5.424523 -1.903680 19.830425 -0.869555 1.820226 40.821319 -0.000002 -0.000006 -0.000002 0.000000 0.000000 -0.000002 15.142719 10.084275 -1.842356 -1.203972 -0.203708 -2.195573 0.000003 -0.000002 -0.000014 -0.000002 0.000002 -0.000002 -5.849799 -3.759808 2.898649 0.551693 -1.850125 39.370218 -0.000006 -0.000002 -0.000003 0.000002 -0.000001 -0.000003 -12.572257 -5.085787 26.223125 -1.339172 4.331016 38.481634 -0.000002 0.000004 0.000009 0.000001 0.000002 -0.000000 -9.021035 4.312324 31.237341 -2.289476 9.203161 39.704600 0.000001 0.000007 0.000013 0.000001 0.000002 0.000003 -39.670282 -4.087310 5.362602 119.840177 -1.585184 -3.152122 8.651361 12.080743 -8.692804 -8.860150 -0.041541 0.081511 0.000001 -0.000000 -0.000000 -35.996900 8.493849 4.085927 60.883978 0.555640 2.100392 -22.214019 -19.020482 11.351213 -0.440242 -0.382909 1.986216 0.000000 -0.000001 0.000000 
-5.768444 172.706680 19.843155 1.695004 -0.468340 -11.958134 2.568206 0.413530 3.334049 5.135743 1.216029 4.146439 5.135744 1.216028 4.146437 -9.250935 2.857826 -0.738764 -18.711827 15.216533 -1.279524 -0.000000 0.000001 -0.000000 -0.000000 0.000001 -0.000000 -0.000000 0.000001 -0.000000 0.519139 -5.392724 -13.761169 46.987518 5.106912 -49.336290 -0.087954 -73.850532 0.056831 8.106149 5.618748 14.120742 0.782960 4.681845 -12.472797 -1.782004 -3.171981 -51.620517 -0.000003 0.000000 0.000001 -0.000001 0.000002 -0.000004 1.400170 -6.809466 -31.668141 0.684702 3.476111 2.104390 0.000011 0.000011 0.000008 0.000002 -0.000000 -0.000000 5.700214 -2.908198 -0.860094 0.333540 1.127986 -44.275711 0.000012 0.000000 -0.000001 0.000001 0.000000 -0.000001 -17.542812 18.423515 -18.469096 -2.031404 -4.485405 -54.379282 -0.000001 -0.000006 -0.000002 0.000001 0.000000 -0.000000 0.811297 25.086204 -33.657594 -2.668075 -8.186065 -52.878624 -0.000002 -0.000007 0.000001 -0.000001 -0.000000 -0.000002 0.756482 -0.778226 14.222105 -2.603936 2.693196 47.261057 0.024416 74.612713 -0.092631 23.441826 -9.520451 1.654932 -5.351543 -1.872603 19.480717 -0.852920 1.800839 40.408902 0.000000 -0.000008 -0.000004 0.000002 -0.000004 -0.000004 14.693376 10.139793 -1.680145 -1.203986 -0.203743 -2.195485 0.000008 0.000001 -0.000015 0.000001 -0.000002 0.000004 -5.478758 -3.420983 3.067008 0.532826 -1.828775 38.618982 -0.000007 -0.000001 0.000004 0.000002 0.000002 -0.000000 -12.297958 -5.230049 26.025999 -1.307494 4.290941 38.007021 -0.000002 0.000009 0.000012 -0.000001 0.000001 0.000000 -8.906716 3.718978 31.244461 -2.226113 9.127853 39.129314 -0.000004 0.000005 0.000010 -0.000002 0.000005 0.000002 -49.508613 -2.801906 1.734990 111.851594 -1.586732 -3.136490 2.198458 13.424262 -8.356208 -7.074923 -0.038229 0.077912 0.000001 0.000000 -0.000001 -27.136169 7.141085 2.251033 58.516546 0.752607 2.049033 -27.071429 -22.870719 8.196117 -1.446622 -0.407272 2.041922 0.000000 0.000000 -0.000000 
-5.805481 177.858429 37.274002 2.081051 4.846247 -10.399213 2.090776 1.428832 2.440331 4.195925 3.037193 2.842456 4.195920 3.037188 2.842458 -9.845142 2.313736 0.203054 -18.559564 12.955499 -1.107282 -0.000000 -0.000001 -0.000000 -0.000000 -0.000001 -0.000000 -0.000000 -0.000001 -0.000000 0.588829 -3.445243 -13.696653 52.492367 11.324054 -47.722395 -0.013500 -81.365448 0.140446 6.342770 3.914147 14.847504 0.779318 4.705391 -12.288214 -1.732572 -3.132305 -50.844137 -0.000001 0.000001 0.000001 0.000002 0.000002 -0.000002 1.296677 -7.097304 -31.694745 0.614392 3.332780 2.094357 0.000002 0.000009 0.000007 0.000000 -0.000000 0.000000 5.695921 -3.049791 -1.075426 0.324318 1.120095 -43.544317 0.000001 -0.000003 -0.000002 -0.000003 -0.000001 -0.000001 -17.144926 18.198476 -18.274412 -1.985755 -4.454199 -53.716286 -0.000002 -0.000007 -0.000006 -0.000001 -0.000000 0.000001 0.798472 25.107536 -33.270572 -2.619886 -8.150168 -52.360882 -0.000002 -0.000002 -0.000006 -0.000001 -0.000001 0.000003 0.654928 0.394923 12.162269 -3.624379 5.831055 50.486508 0.113391 82.049000 -0.173497 22.903540 -9.563261 0.531209 -5.277987 -1.842955 19.130971 -0.836453 1.781336 39.996519 -0.000001 -0.000001 -0.000005 0.000000 -0.000002 -0.000004 14.245238 10.197110 -1.512263 -1.204011 -0.203807 -2.195193 0.000007 0.000002 -0.000018 0.000002 -0.000001 0.000002 -5.109506 -3.080144 3.231033 0.514254 -1.807166 37.867747 -0.000006 -0.000000 -0.000007 0.000003 0.000000 -0.000000 -12.024664 -5.376164 25.830056 -1.276133 4.250606 37.532477 -0.000000 0.000008 0.000008 -0.000002 -0.000002 0.000001 -8.792909 3.125265 31.250346 -2.163569 9.051935 38.554256 -0.000002 0.000007 0.000010 -0.000002 0.000001 0.000001 -52.910631 -1.281844 -3.078431 95.289199 -0.246498 -2.878644 -2.507421 20.173070 -8.766405 -2.043165 -0.029509 0.067198 -0.000000 0.000001 0.000001 -16.325785 5.025782 0.525797 51.322386 0.398636 1.824972 -23.462002 -27.330717 7.261902 -7.548033 -0.485787 2.961508 -0.000000 -0.000000 -0.000000 
-4.878052 184.088058 54.333706 3.116449 10.309712 -9.592290 1.288308 2.266087 1.507580 2.601484 4.681921 1.586892 2.601484 4.681920 1.586887 -9.234655 1.737970 1.705513 -17.022184 10.710228 -0.607677 -0.000000 0.000001 -0.000000 -0.000000 0.000001 -0.000000 -0.000000 0.000001 -0.000000 0.592438 -3.313495 -12.895004 56.579299 18.769910 -48.403621 0.477784 -87.814417 0.627579 6.952911 1.279190 13.949353 0.779534 4.732560 -12.104370 -1.683709 -3.091971 -50.067821 0.000002 0.000001 0.000002 -0.000003 0.000000 -0.000003 0.531465 -7.331657 -31.564643 0.544138 3.189414 2.083909 0.000004 0.000009 0.000007 0.000000 -0.000000 -0.000000 5.694698 -3.191513 -1.290578 0.315185 1.112092 -42.812985 0.000006 -0.000002 -0.000002 0.000002 0.000001 -0.000000 -16.747040 17.973781 -18.078428 -1.940374 -4.423537 -53.053293 -0.000002 -0.000006 -0.000002 -0.000001 -0.000000 -0.000002 0.788865 25.133575 -32.884994 -2.572025 -8.113875 -51.843298 -0.000002 -0.000003 -0.000005 -0.000001 -0.000000 0.000001 0.590178 2.555701 9.891479 -0.879297 7.439245 52.369352 0.666283 88.397626 -0.718685 23.115418 -9.312504 -1.364272 -5.203882 -1.814764 18.781191 -0.820144 1.761733 39.584153 -0.000002 -0.000005 -0.000008 0.000001 -0.000005 -0.000002 13.798335 10.256009 -1.338849 -1.204085 -0.203914 -2.194702 0.000004 0.000001 -0.000016 -0.000001 -0.000001 -0.000002 -4.742026 -2.737376 3.390683 0.495960 -1.785337 37.116518 -0.000007 0.000002 0.000001 -0.000002 0.000002 -0.000003 -11.752396 -5.524158 25.635302 -1.245134 4.209999 37.057956 -0.000001 0.000010 0.000006 -0.000001 -0.000001 0.000001 -8.679630 2.531145 31.254888 -2.101778 8.975412 37.979397 -0.000001 0.000009 0.000011 0.000000 -0.000000 0.000001 -52.444761 -0.319639 -6.923917 72.687877 1.689910 -2.329365 -2.584528 28.778807 -11.837078 1.183184 -0.024405 0.060256 0.000001 0.000001 0.000000 -7.697335 2.511807 -0.556139 42.928869 -0.613171 1.515238 -6.505911 -28.854414 14.511492 -22.916859 -0.972643 6.525401 0.000000 0.000001 -0.000000 
